# xmcd
#
# Track frame offsets:
#	150
#	15052
#	28904
#	39188
#	56543
#	70373
#	85189
#	100291
#	113512
#	122497
#	135322
#	146020
#
# Disc length: 2143 seconds
#
# Revision: 0
# Processed by: cddbd v1.5.2PL0 Copyright (c) Steve Scherf et al.
# Submitted via: audiograbber 1.83.01
#
DISCID=90085d0c
DTITLE=Status Quo - Picturesque Matchstickable Messages From the Status Quo
DYEAR=1968
DGENRE=Psychodelic Rock
TTITLE0=Black Veils Of Melancholy
TTITLE1=When My Mind Is Not Live
TTITLE2=Ice In The Sun
TTITLE3=Elizabeth Dreams
TTITLE4=Gentleman Joe's Sidewalk Cafe
TTITLE5=Paradise Flat
TTITLE6=Technicolour Dreams
TTITLE7=Spicks And Specks
TTITLE8=Sheila
TTITLE9=Sunny Cellophone Skies
TTITLE10=Green Tambourine
TTITLE11=Pictures Of Matchstick Men
EXTD=
EXTT0=
EXTT1=
EXTT2=
EXTT3=
EXTT4=
EXTT5=
EXTT6=
EXTT7=
EXTT8=
EXTT9=
EXTT10=
EXTT11=
PLAYORDER=
